<?xml version="1.0" encoding="UTF-8"?>
<svg xmlns="http://www.w3.org/2000/svg" xmlns:xlink="http://www.w3.org/1999/xlink" width="3750" height="3750" viewBox="0 0 3750 3750">
<rect x="-375" y="-375" width="4500" height="4500" fill="rgb(94.921875%, 94.921875%, 94.921875%)" fill-opacity="1"/>
<path fill-rule="nonzero" fill="rgb(73.242188%, 68.554688%, 65.429688%)" fill-opacity="1" d="M 778.433594 1142.730469 L 767.53125 1074.640625 C 767.53125 1074.640625 580.960938 1037.328125 450.359375 925.390625 C 450.359375 925.390625 702.230469 995.351562 767.53125 981.359375 C 767.53125 981.359375 678.910156 608.210938 958.769531 375 C 958.769531 375 1280.609375 468.289062 1462.511719 841.429688 C 1462.511719 841.429688 1551.128906 813.441406 1616.429688 822.769531 L 1574.460938 752.808594 C 1574.460938 752.808594 1719.050781 832.101562 1842.648438 860.089844 L 1798.339844 771.460938 C 1798.339844 771.460938 1919.609375 850.761719 1998.910156 860.089844 C 2078.199219 869.421875 2311.410156 799.449219 2311.410156 799.449219 L 2274.101562 883.410156 C 2274.101562 883.410156 2330.070312 860.089844 2418.699219 874.078125 C 2418.699219 874.078125 2843.140625 514.929688 2987.738281 514.929688 C 2987.738281 514.929688 3178.96875 780.789062 3048.378906 1209.910156 L 3267.589844 1251.890625 C 3267.589844 1251.890625 3095.019531 1275.210938 3025.050781 1331.179688 C 3025.050781 1331.179688 3197.628906 1410.46875 3169.640625 1611.039062 C 3169.640625 1611.039062 3095.019531 1419.808594 3006.390625 1415.140625 L 3076.359375 1499.101562 L 3011.058594 1569.058594 C 3011.058594 1569.058594 3067.03125 1839.589844 3290.921875 2007.5 L 3081.019531 1876.898438 C 3081.019531 1876.898438 3337.558594 2063.480469 3295.578125 2422.621094 C 3295.578125 2422.621094 3342.21875 2525.238281 3309.570312 2669.839844 L 3239.609375 2529.910156 C 3239.609375 2529.910156 3272.261719 2557.890625 3216.289062 2749.128906 C 3216.289062 2749.128906 3178.96875 2641.851562 3067.03125 2571.878906 C 3067.03125 2571.878906 3202.300781 2674.5 3062.359375 2907.714844 C 3062.359375 2907.714844 3034.378906 2847.078125 2950.421875 2781.777344 C 2950.421875 2781.777344 3025.050781 2884.390625 2880.460938 3159.585938 C 2880.460938 3159.585938 2894.449219 2945.027344 2731.199219 2819.09375 C 2727.460938 2962.164062 2654.359375 3089.820312 2572.609375 3215.558594 C 2572.609375 3215.558594 2525.96875 3109.136719 2414.03125 3020.515625 C 2414.03125 3020.515625 2483.988281 3137.121094 2292.761719 3375 C 2292.761719 3375 2236.789062 3160.441406 2232.121094 3020.515625 C 2232.121094 3020.515625 2171.480469 3202.421875 2218.128906 3365.671875 C 2218.128906 3365.671875 2025.128906 3392.078125 1767.878906 3022.683594 C 1767.878906 3022.683594 1767.878906 3148.015625 1840.441406 3312.921875 C 1840.441406 3312.921875 1616.160156 3187.59375 1471.039062 2851.179688 C 1471.039062 2851.179688 1424.871094 2996.300781 1550.199219 3161.207031 C 1550.199219 3161.207031 1352.308594 3134.824219 1279.75 2877.566406 C 1279.75 2877.566406 1161.019531 3009.492188 1029.089844 3016.085938 L 1121.441406 2785.21875 C 1121.441406 2785.21875 943.339844 2851.179688 877.375 3049.070312 C 877.375 3049.070312 811.414062 2798.410156 910.355469 2640.101562 C 910.355469 2640.101562 725.660156 2837.988281 712.46875 2956.722656 C 712.46875 2956.722656 666.292969 2699.460938 1009.300781 2409.230469 C 1009.300781 2409.230469 527.769531 2587.328125 488.191406 2903.949219 C 488.191406 2903.949219 507.980469 2409.230469 666.292969 2257.511719 C 666.292969 2257.511719 481.597656 2396.03125 428.824219 2488.378906 C 428.824219 2488.378906 468.402344 2086.011719 686.082031 1861.730469 C 686.082031 1861.730469 534.367188 1828.75 461.808594 1795.769531 L 758.640625 1591.289062 C 758.640625 1591.289062 620.117188 1551.710938 521.175781 1617.671875 C 521.175781 1617.671875 461.808594 1446.171875 672.890625 1426.371094 C 672.890625 1426.371094 679.488281 1360.410156 501.386719 1380.199219 C 501.386719 1380.199219 534.367188 1155.929688 778.429688 1142.730469 Z M 778.433594 1142.730469 "/>
<path fill-rule="nonzero" fill="rgb(58.006287%, 50.584412%, 45.872498%)" fill-opacity="1" d="M 2550.269531 2040.808594 C 2522.289062 2041.011719 2503.628906 2044.808594 2503.628906 2044.808594 C 2503.628906 2044.808594 2601.589844 2161.410156 2545.621094 2226.710938 C 2489.648438 2292.019531 2117.070312 2138.789062 2117.070312 2138.789062 L 2117.410156 2141.191406 L 2082.488281 2127.230469 C 2073.019531 2149.019531 1883.179688 2249.691406 1668.171875 2194.089844 C 1642.289062 2150.011719 1509.339844 2090.078125 1543.628906 2066.230469 C 1543.628906 2066.230469 1429.859375 2117.351562 1395.230469 2142.078125 L 1412.230469 2217.421875 C 1472.859375 2487.941406 1757.359375 2464.609375 1757.359375 2464.609375 L 1696.730469 2702.5 C 1720.050781 2688.5 1878.628906 2511.25 1878.628906 2511.25 C 1859.980469 2613.871094 1883.320312 2767.78125 1883.320312 2767.78125 C 1971.941406 2716.46875 2023.261719 2576.539062 2023.261719 2576.539062 C 2055.910156 2777.105469 2317.101562 2791.105469 2317.101562 2791.105469 L 2317.101562 2515.910156 C 2345.089844 2595.199219 2522.328125 2651.191406 2522.328125 2651.191406 L 2545.648438 2445.929688 L 2564.289062 2571.890625 C 2732.199219 2389.980469 2648.25 2226.71875 2648.25 2226.71875 L 2802.179688 2334 C 2802.179688 2071.628906 2634.261719 2040.160156 2550.300781 2040.808594 Z M 2123.160156 2187.421875 L 2123.691406 2191.558594 C 2123.691406 2191.558594 2295.199219 2300.378906 2288.601562 2330.058594 C 2282 2359.75 2150.089844 2359.75 2150.089844 2359.75 C 2140.199219 2396.03125 2021.46875 2445.519531 2021.46875 2445.519531 C 2041.671875 2393.570312 2054.300781 2379.480469 2057.140625 2376.78125 C 2019.980469 2415.421875 1876.25 2379.339844 1859.839844 2339.941406 C 1843.351562 2300.371094 2061.039062 2211.320312 2061.039062 2211.320312 Z M 2123.160156 2187.421875 "/>
<path fill-rule="nonzero" fill="rgb(58.006287%, 50.584412%, 45.872498%)" fill-opacity="1" d="M 1797.558594 1630.859375 C 1797.558594 1630.859375 1907.949219 1762.628906 1933.609375 1764.960938 C 1959.261719 1767.289062 1972.359375 1696.820312 1972.359375 1696.820312 L 2045.550781 1949.199219 L 1969.75 1967.859375 C 1969.75 1967.859375 1917.28125 1865.25 1882.300781 1844.25 C 1847.320312 1823.269531 1768.789062 1732.308594 1797.558594 1630.859375 Z M 1797.558594 1630.859375 "/>
<path fill-rule="nonzero" fill="rgb(52.539062%, 86.71875%, 100%)" fill-opacity="1" d="M 1510.621094 1673.738281 C 1510.621094 1673.738281 1614.511719 1739.691406 1713.460938 1703.421875 C 1812.398438 1667.140625 1797.558594 1630.859375 1797.558594 1630.859375 L 1639.25 1546.761719 L 1472.691406 1559.949219 C 1472.691406 1559.949219 1469.398438 1642.410156 1510.621094 1673.738281 Z M 1510.621094 1673.738281 "/>
<path fill-rule="nonzero" fill="rgb(84.764099%, 95.701599%, 100%)" fill-opacity="1" d="M 1545.660156 1669.75 C 1545.660156 1669.75 1503.53125 1631.371094 1522.25 1612.640625 C 1540.96875 1593.921875 1682.328125 1689.410156 1682.328125 1689.410156 C 1682.328125 1689.410156 1600.890625 1718.429688 1545.660156 1669.75 Z M 1545.660156 1669.75 "/>
<path fill-rule="nonzero" fill="rgb(0%, 0%, 0%)" fill-opacity="1" d="M 1510.621094 1673.738281 L 1400.128906 1546.761719 C 1400.128906 1546.761719 1601.320312 1517.078125 1673.878906 1548.410156 C 1746.441406 1579.738281 1797.558594 1630.859375 1797.558594 1630.859375 L 1809.109375 1606.128906 L 1847.039062 1691.878906 L 1772.820312 1695.179688 L 1713.460938 1703.421875 C 1713.460938 1703.421875 1753.039062 1683.628906 1753.039062 1660.550781 C 1753.039062 1637.460938 1731.601562 1612.71875 1673.878906 1592.929688 C 1616.160156 1573.140625 1513.921875 1558.308594 1494.128906 1589.640625 C 1474.339844 1620.96875 1510.621094 1673.738281 1510.621094 1673.738281 Z M 1510.621094 1673.738281 "/>
<path fill-rule="nonzero" fill="rgb(58.006287%, 50.584412%, 45.872498%)" fill-opacity="1" d="M 2304.421875 1679.828125 L 2201.808594 1930.539062 C 2201.808594 1930.539062 2264.769531 1862.910156 2288.089844 1862.910156 C 2311.410156 1862.910156 2428.019531 1918.878906 2495.648438 1890.890625 C 2495.648438 1890.890625 2253.109375 1862.910156 2304.421875 1679.828125 Z M 2304.421875 1679.828125 "/>
<path fill-rule="nonzero" fill="rgb(0%, 0%, 0%)" fill-opacity="1" d="M 1655 1585.820312 C 1655 1585.820312 1599.480469 1599.699219 1597.171875 1629.769531 C 1594.859375 1659.839844 1636.5 1692.230469 1636.5 1692.230469 C 1636.5 1692.230469 1719.769531 1652.910156 1655 1585.820312 Z M 1655 1585.820312 "/>
<path fill-rule="nonzero" fill="rgb(52.539062%, 86.71875%, 100%)" fill-opacity="1" d="M 2366.488281 1759.488281 C 2366.488281 1759.488281 2479.488281 1794.460938 2533.050781 1752.890625 C 2586.609375 1711.320312 2564.449219 1643.691406 2564.449219 1643.691406 L 2531.800781 1584.21875 L 2386.039062 1605.210938 L 2304.421875 1679.839844 C 2304.421875 1679.839844 2302.628906 1730.691406 2366.488281 1759.488281 Z M 2366.488281 1759.488281 "/>
<path fill-rule="nonzero" fill="rgb(0%, 0%, 0%)" fill-opacity="1" d="M 2277.449219 1719.910156 C 2277.449219 1719.910156 2277.449219 1670.441406 2315.371094 1637.460938 C 2353.300781 1604.480469 2430.808594 1573.140625 2491.820312 1573.140625 C 2552.839844 1573.140625 2590.769531 1592.929688 2590.769531 1592.929688 L 2575.929688 1736.398438 L 2533.050781 1752.890625 C 2533.050781 1752.890625 2561.089844 1724.859375 2564.378906 1696.820312 C 2567.679688 1668.789062 2547.890625 1606.121094 2467.089844 1611.070312 C 2386.28125 1616.019531 2315.371094 1686.929688 2321.96875 1714.960938 C 2328.570312 1743 2366.488281 1759.488281 2366.488281 1759.488281 C 2366.488281 1759.488281 2295.578125 1731.460938 2292.289062 1723.210938 C 2288.988281 1714.960938 2279.089844 1785.871094 2279.089844 1785.871094 Z M 2277.449219 1719.910156 "/>
<path fill-rule="nonzero" fill="rgb(84.764099%, 95.701599%, 100%)" fill-opacity="1" d="M 2359.160156 1729.660156 C 2359.160156 1729.660156 2510.808594 1658.519531 2529.539062 1669.75 C 2548.261719 1680.980469 2537.03125 1799.871094 2359.160156 1729.660156 Z M 2359.160156 1729.660156 "/>
<path fill-rule="nonzero" fill="rgb(0%, 0%, 0%)" fill-opacity="1" d="M 2422.019531 1625.660156 C 2422.019531 1625.660156 2386.058594 1651.359375 2391.191406 1684.761719 C 2396.328125 1718.160156 2419.460938 1738.71875 2442.578125 1733.578125 C 2465.699219 1728.441406 2501.679688 1630.808594 2422.019531 1625.660156 Z M 2422.019531 1625.660156 "/>
<path fill-rule="nonzero" fill="rgb(42.358398%, 36.473083%, 32.93457%)" fill-opacity="1" d="M 2097.699219 2048.078125 L 2082.851562 2160.210938 C 2082.851562 2160.210938 1901.449219 2227.828125 1886.609375 2241.019531 C 1871.769531 2254.210938 1833.839844 2318.53125 1833.839844 2318.53125 L 1942.679688 2232.78125 C 1942.679688 2232.78125 2171.898438 2229.480469 2191.691406 2236.070312 C 2211.480469 2242.671875 2315.371094 2313.578125 2315.371094 2313.578125 C 2315.371094 2313.578125 2270.851562 2252.558594 2252.710938 2241.019531 C 2234.570312 2229.480469 2122.429688 2155.269531 2122.429688 2155.269531 L 2112.539062 2038.179688 Z M 2097.699219 2048.078125 "/>
<path fill-rule="nonzero" fill="rgb(89.84375%, 24.31488%, 36.083984%)" fill-opacity="1" d="M 1969.75 1967.859375 C 1969.75 1967.859375 2101.519531 2098.460938 2107.351562 2100.789062 C 2113.179688 2103.121094 2220.460938 1976.019531 2220.460938 1976.019531 C 2220.460938 1976.019531 2253.109375 1927.050781 2221.628906 1909.558594 C 2190.140625 1892.058594 2004.738281 1895.558594 1997.738281 1900.230469 C 1990.738281 1904.890625 1928.941406 1932.871094 1969.75 1967.859375 Z M 1969.75 1967.859375 "/>
<path fill-rule="nonzero" fill="rgb(0%, 0%, 0%)" fill-opacity="1" d="M 1969.75 1967.859375 C 1969.75 1967.859375 2043.21875 1942.199219 2054.878906 1959.691406 C 2066.539062 1977.191406 2043.21875 2014.5 2043.21875 2014.5 Z M 1969.75 1967.859375 "/>
<path fill-rule="nonzero" fill="rgb(0%, 0%, 0%)" fill-opacity="1" d="M 2176.148438 2007.5 C 2176.148438 2007.5 2170.320312 1976.019531 2174.980469 1971.359375 C 2179.648438 1966.691406 2220.460938 1976.019531 2220.460938 1976.019531 Z M 2176.148438 2007.5 "/>
<path fill-rule="nonzero" fill="rgb(58.006287%, 50.584412%, 45.872498%)" fill-opacity="1" d="M 991.417969 477.621094 C 991.417969 477.621094 1182.660156 645.53125 1187.320312 794.789062 C 1191.980469 944.050781 977.425781 738.820312 977.425781 738.820312 C 977.425781 738.820312 1033.398438 818.109375 1108.03125 888.070312 C 1108.03125 888.070312 949.441406 927.71875 867.8125 927.71875 C 867.8125 927.71875 963.433594 951.039062 1014.738281 951.039062 L 828.167969 981.359375 C 828.167969 981.359375 769.863281 521.929688 991.417969 477.621094 Z M 991.417969 477.621094 "/>
<path fill-rule="nonzero" fill="rgb(58.006287%, 50.584412%, 45.872498%)" fill-opacity="1" d="M 884.140625 1086.308594 C 884.140625 1086.308594 1054.390625 1048.988281 1133.679688 995.351562 C 1133.679688 995.351562 1257.289062 1069.980469 1329.578125 1086.308594 C 1329.578125 1086.308594 1171 1067.648438 1108.03125 1060.648438 L 1201.308594 1135.28125 L 849.15625 1172.589844 C 849.15625 1172.589844 809.511719 1081.640625 884.140625 1086.308594 Z M 884.140625 1086.308594 "/>
<path fill-rule="nonzero" fill="rgb(58.006287%, 50.584412%, 45.872498%)" fill-opacity="1" d="M 2697.960938 1155.929688 L 2902.449219 1063.578125 C 2902.449219 1063.578125 2697.960938 994.320312 2533.050781 1066.871094 C 2533.050781 1066.871094 2615.5 918.460938 2734.238281 918.460938 C 2734.238281 918.460938 2612.210938 898.671875 2523.160156 954.738281 C 2523.160156 954.738281 2819.988281 631.519531 2955.21875 608.429688 C 2955.21875 608.429688 3166.300781 928.359375 2912.339844 1340.621094 C 2912.339844 1340.621094 2866.160156 1225.191406 2757.320312 1231.789062 L 2869.460938 1208.699219 C 2869.460938 1208.699219 2773.820312 1146.03125 2697.960938 1155.929688 Z M 2697.960938 1155.929688 "/>
<path fill-rule="nonzero" fill="rgb(58.006287%, 50.584412%, 45.872498%)" fill-opacity="1" d="M 1992.148438 1640.761719 C 1992.148438 1640.761719 1757.980469 1571.5 1734.898438 1472.550781 C 1711.808594 1373.609375 1754.691406 1218.589844 1754.691406 1218.589844 C 1754.691406 1218.589844 1823.941406 1459.359375 1860.230469 1498.941406 C 1896.511719 1538.519531 1969.070312 1551.710938 1969.070312 1551.710938 L 1899.808594 1304.339844 C 1899.808594 1304.339844 2011.941406 1413.179688 2015.238281 1475.851562 C 2015.238281 1475.851562 2015.238281 1264.769531 1975.660156 1195.511719 C 1975.660156 1195.511719 2252.710938 1195.511719 2163.660156 1574.789062 C 2163.660156 1574.789062 2302.179688 1508.828125 2321.96875 1429.679688 C 2341.761719 1350.519531 2341.761719 1284.558594 2341.761719 1284.558594 C 2341.761719 1284.558594 2397.828125 1452.761719 2341.761719 1525.320312 C 2285.691406 1597.878906 2173.550781 1710.019531 2173.550781 1710.019531 C 2173.550781 1710.019531 2015.238281 1663.839844 1972.359375 1696.820312 Z M 1992.148438 1640.761719 "/>
<path fill-rule="nonzero" fill="rgb(58.006287%, 50.584412%, 45.872498%)" fill-opacity="1" d="M 1403.429688 1625.910156 C 1403.429688 1625.910156 1301.191406 1586.339844 1213.789062 1599.53125 L 1250.070312 1620.96875 C 1250.070312 1620.96875 1147.820312 1607.78125 1088.460938 1747.949219 C 1088.460938 1747.949219 1296.238281 1578.089844 1403.429688 1625.910156 Z M 1403.429688 1625.910156 "/>
<path fill-rule="nonzero" fill="rgb(58.006287%, 50.584412%, 45.872498%)" fill-opacity="1" d="M 2618.808594 1670.441406 C 2618.808594 1670.441406 2674.871094 1639.109375 2734.238281 1670.441406 C 2793.609375 1701.769531 2866.160156 1759.488281 2866.160156 1759.488281 C 2866.160156 1759.488281 2673.148438 1697.191406 2618.808594 1670.441406 Z M 2618.808594 1670.441406 "/>
<path fill-rule="nonzero" fill="rgb(100%, 100%, 100%)" fill-opacity="1" d="M 1779.679688 2114.78125 C 1779.679688 2114.78125 1420.539062 2324.679688 1513.820312 2683.828125 C 1513.820312 2683.828125 1513.820312 2338.671875 1779.679688 2114.78125 Z M 1779.679688 2114.78125 "/>
<path fill-rule="nonzero" fill="rgb(100%, 100%, 100%)" fill-opacity="1" d="M 2362.71875 2184.75 C 2362.71875 2184.75 2707.878906 2375.980469 2586.609375 2651.179688 C 2586.609375 2651.179688 2642.589844 2209.28125 2362.71875 2184.75 Z M 2362.71875 2184.75 "/>
<path fill-rule="nonzero" fill="rgb(100%, 100%, 100%)" fill-opacity="1" d="M 2318.671875 2023.339844 C 2318.671875 2023.339844 2704.558594 1904.609375 2918.929688 2099.199219 C 2918.929688 2099.199219 2585.820312 1947.480469 2318.671875 2023.339844 Z M 2318.671875 2023.339844 "/>
<path fill-rule="nonzero" fill="rgb(81.639099%, 78.514099%, 76.5625%)" fill-opacity="1" d="M 1969.070312 2089.308594 L 1602.96875 2118.988281 C 1602.96875 2118.988281 1896.511719 1904.609375 1969.070312 2089.308594 Z M 1969.070312 2089.308594 "/>
<path fill-rule="nonzero" fill="rgb(81.639099%, 78.514099%, 76.5625%)" fill-opacity="1" d="M 2259.308594 2099.199219 L 2523.160156 2175.058594 C 2523.160156 2175.058594 2411.019531 1927.699219 2259.308594 2099.199219 Z M 2259.308594 2099.199219 "/>
<path fill-rule="nonzero" fill="rgb(81.639099%, 78.514099%, 76.5625%)" fill-opacity="1" d="M 1258.429688 1527.078125 C 1258.429688 1527.078125 1076.53125 1345.179688 885.289062 1466.441406 L 1053.199219 1531.75 C 1053.199219 1531.75 782.675781 1555.070312 754.6875 1676.339844 L 1188.46875 1585.390625 L 1085.859375 1482.769531 C 1085.859375 1482.769531 1169.808594 1487.441406 1258.429688 1527.078125 Z M 1258.429688 1527.078125 "/>
<path fill-rule="nonzero" fill="rgb(81.639099%, 78.514099%, 76.5625%)" fill-opacity="1" d="M 1771.179688 1134.609375 C 1771.179688 1134.609375 1725 966.398438 1678.828125 897.140625 C 1678.828125 897.140625 1899.808594 900.441406 1985.558594 1032.359375 L 1949.28125 887.25 C 1949.28125 887.25 2285.691406 867.460938 2229.621094 1121.410156 C 2229.621094 1121.410156 2120.78125 1025.769531 2074.609375 1009.28125 L 2044.921875 1167.589844 C 2044.921875 1167.589844 1913 1038.960938 1820.648438 1025.769531 C 1820.648438 1025.769531 1827.25 1088.429688 1771.179688 1134.609375 Z M 1771.179688 1134.609375 "/>
<path fill-rule="nonzero" fill="rgb(81.639099%, 78.514099%, 76.5625%)" fill-opacity="1" d="M 1237.289062 2051.359375 C 1237.289062 2051.359375 836.15625 2014.050781 714.882812 2503.800781 L 1097.359375 2265.921875 C 1097.359375 2265.921875 1013.398438 2419.839844 999.40625 2676.378906 C 999.40625 2676.378906 1144 2354.539062 1297.921875 2237.929688 C 1297.921875 2237.929688 1120.679688 2116.660156 882.796875 2298.570312 C 882.796875 2298.570312 1041.390625 2125.988281 1237.289062 2051.359375 Z M 1237.289062 2051.359375 "/>
<path fill-rule="nonzero" fill="rgb(81.639099%, 78.514099%, 76.5625%)" fill-opacity="1" d="M 2900.269531 2166.089844 C 2900.269531 2166.089844 3189.449219 2194.078125 3203.449219 2576.550781 C 3203.449219 2576.550781 2974.890625 2417.960938 2853.621094 2417.960938 C 2853.621094 2417.960938 2918.921875 2320.011719 3058.851562 2357.328125 C 3058.851562 2357.328125 3044.859375 2301.359375 2900.269531 2166.089844 Z M 2900.269531 2166.089844 "/>
<path fill-rule="nonzero" fill="rgb(81.639099%, 78.514099%, 76.5625%)" fill-opacity="1" d="M 3169.589844 2250.910156 C 3169.589844 2250.910156 3054.160156 2053.03125 2942.019531 2023.339844 C 2942.019531 2023.339844 3100.328125 1848.539062 3169.589844 2250.910156 Z M 3169.589844 2250.910156 "/>
<path fill-rule="nonzero" fill="rgb(100%, 100%, 100%)" fill-opacity="1" d="M 1807.671875 2175.421875 C 1807.671875 2175.421875 1208.078125 2113.359375 1042.730469 2581.210938 C 1042.730469 2581.210938 1299.96875 2037.261719 1807.671875 2175.421875 Z M 1807.671875 2175.421875 "/>
<path fill-rule="nonzero" fill="rgb(100%, 100%, 100%)" fill-opacity="1" d="M 1738.191406 2026.640625 C 1738.191406 2026.640625 1111.550781 1924.398438 926.847656 2168.460938 C 926.847656 2168.460938 1464.449219 1855.140625 1738.191406 2026.640625 Z M 1738.191406 2026.640625 "/>
<path fill-rule="nonzero" fill="rgb(100%, 100%, 100%)" fill-opacity="1" d="M 2344.070312 2107.78125 C 2344.070312 2107.78125 2966.800781 2102.03125 3014.578125 2504.871094 C 3014.578125 2504.871094 2798.21875 2047.109375 2344.070312 2107.78125 Z M 2344.070312 2107.78125 "/>
<path fill-rule="nonzero" fill="rgb(81.639099%, 78.514099%, 76.5625%)" fill-opacity="1" d="M 2493.46875 1472.550781 C 2493.46875 1472.550781 2641.890625 1327.429688 2734.238281 1327.429688 C 2826.589844 1327.429688 2711.148438 1456.058594 2711.148438 1456.058594 C 2711.148438 1456.058594 2846.378906 1512.128906 2895.851562 1663.839844 C 2895.851562 1663.839844 2684.769531 1386.800781 2493.46875 1472.550781 Z M 2493.46875 1472.550781 "/>
</svg>
